<svg version="1" xmlns="http://www.w3.org/2000/svg" width="682.667" height="682.667" viewBox="0 0 512.000000 512.000000"><path d="M135.2 20.1c-11.8 1.5-23.9 11.2-28.1 22.4-4.1 10.9-2.2 25.4 4.3 34 2.9 3.7 3.1 4.5 1.5 4.5-2.9 0-17.3 7-24.9 12.1-19.7 13.2-33.4 33.1-39.1 56.5-3 12.4-3 30.4 0 42.9 4.2 17.5 16 37.2 29.2 48.8 21 18.6 51.8 27.3 78.6 22.2 21.4-4.1 38.3-13.2 52.6-28.5 34.2-36.5 33.9-93.1-.7-128.8C197.8 95 183.2 85.5 171.3 82c-4.7-1.4-5.1-2.1-2.7-4.1 5.2-4.3 8.9-18.2 7.3-27.9-3.1-19.7-20.5-32.4-40.7-29.9zm14.9 16.4c6.1 3.2 11.9 12.4 11.9 19s-5.8 15.8-11.9 18.9c-8.1 4.1-17.2 2.5-24.1-4.3-6.3-6.1-8-12.3-5.6-20.5 1.9-6.3 8.2-12.7 14.4-14.4 4.3-1.2 11.6-.6 15.3 1.3zm9.5 57.5c21.9 5.6 40.3 20 50.7 39.8 6.7 12.7 9 21.9 9 36.7.1 14.5-1.6 22.1-7.8 35-7.9 16.2-19.5 27.9-36 36-11.3 5.6-18.4 7.5-31 8.2-38 2.1-71.9-23.5-81.2-61.3-2.6-10.9-2.2-27.7 1.1-38.7 1.4-4.9 3.8-11.2 5.2-14 10.6-21.1 31.3-37.3 53.8-42.2 9.7-2.1 26.9-1.9 36.2.5z"/><path d="M135.5 111.9c-1.5 1.7-18.6 46.1-21.6 56.1-1 3.2-.2 5.8 9.5 32 10.8 29 12.4 32 17.1 32 4.8 0 6.4-3 17-31.5 5.8-15.4 10.5-28.7 10.5-29.6 0-2.6-20.5-56.8-22.3-58.9-2.2-2.6-7.8-2.6-10.2-.1zm11.5 44.8l5.2 14.2-5.7 15.6c-3.2 8.5-5.9 15.4-6 15.3-.1-.2-2.8-7.2-6-15.6l-5.7-15.3 5.8-15.5c3.5-9.5 6-15 6.5-14.2.4.7 3.1 7.7 5.9 15.5z"/><path d="M135.5 165.5c-4.1 4-3.2 9.9 1.8 12 8.1 3.4 14.4-5.9 8.2-12-1.3-1.4-3.6-2.5-5-2.5s-3.7 1.1-5 2.5zM421.2 103.7l-82.3 20.5-57.2-14.3c-31.5-7.8-58.5-14.2-60.1-14.2-2 0-3.7.9-5.3 2.7-2.8 3.3-2.9 5.6-.4 8.7 1.7 2.1 9.5 4.3 58.3 16.4l56.3 14.1.5 44.8.5 44.8 2.9 2.5c2.1 1.8 3.5 2.3 5.5 1.8 5.8-1.4 5.6.3 6.1-48.7l.5-45.1 73.5-18.3c40.4-10.1 74.3-18.3 75.3-18.4 1.6 0 1.7 8.7 1.7 168.5v168.4l-3.7 1.1c-7.2 2-145 36-146.2 36-.8 0-1.2-13-1.3-46.6l-.3-46.7-2.6-1.9c-2-1.5-3.5-1.8-5.8-1.3-6.1 1.3-6.1 1.5-6.1 51.5 0 24.7-.2 45-.5 45s-17.1-4.1-37.2-9c-20.1-5-37.3-9-38.2-9-3 0-6.1 3.8-6.1 7.4 0 6.1 1.2 6.5 46 17.5 22.8 5.6 42.7 10.1 44.2 10.1 1.4 0 39.9-9.2 85.5-20.5 74.3-18.4 83-20.8 85.1-23.1l2.2-2.5V268c0-128.3-.3-178.6-1.1-180.3-1-2.2-4.8-4.8-6.7-4.6-.4 0-37.7 9.3-83 20.6zM22 120.5c-19.8 5.1-19.4 5-20.9 8.1-.8 1.8-1.1 26.6-1.1 88.9v86.4l2.3 2.7c2.8 3.2 7.8 3.7 10.5 1 1.6-1.5 1.7-8.3 2.2-85.8l.5-84.2 14.8-3.7c8.1-2 15.7-4.5 16.8-5.5 4.5-4.1.6-12.5-5.7-12.3-1.6 0-10.3 2-19.4 4.4z"/><path d="M423.3 153.3C409 167.6 407 170 407 172.8c0 4.2 3 7.2 7.3 7.2 2.8 0 4.8-1.6 15.2-12 6.6-6.6 12.4-12 12.9-12 .6 0 6.5 5.4 13.1 12 11 10.8 12.5 12 15.8 12 2.7 0 4.1-.7 5.6-2.6 4.1-5.2 3.3-6.5-14.2-24.1C448 138.5 446.2 137 443 137c-3.1 0-5 1.5-19.7 16.3z"/><path d="M423.3 186.3C409.4 200.2 407 203 407 205.6c0 3.9 3.6 7.4 7.6 7.4 2.4 0 4.6-1.7 11.4-8.5l8.5-8.6.5 16c.6 18.2 1.3 20.1 8 20.1 6.5 0 7-1.4 7-20v-16.4l8.9 8.7c7.8 7.6 9.3 8.7 12.4 8.7 2.6 0 4.1-.7 5.6-2.6 4.1-5.3 3.4-6.6-14.2-24.1C448 171.6 446.1 170 443 170c-3.1 0-5 1.6-19.7 16.3zM255.7 224.8c-11.1 11.2-16.7 17.5-16.7 19 0 3.5 4.2 7.5 7.9 7.5 2.8 0 4.9-1.6 15.4-12.1 6.7-6.7 12.7-12.2 13.2-12.2s6.5 5.5 13.2 12.2c10.2 10.2 12.6 12.1 15.2 12.1 4.3 0 7.1-2.8 7.1-7.2 0-3.4-1.2-4.9-16.3-19.9-13.8-13.6-16.8-16.2-19.3-16.2s-5.5 2.6-19.7 16.8zM365.6 237.6c-10.7 2.6-20.1 7.9-28 15.7-12.2 12.3-16.6 24-16.6 44.6 0 26.6 8.4 51.9 24.3 73.5 10.7 14.5 29.7 30.9 35.6 30.9 3.8 0 11-5.1 20.9-14.8 9.2-9 10.1-11.7 5.7-16-3-3.1-7.5-3.3-10.1-.4-3.6 4.1-15.5 13.9-16.7 13.9-2.2 0-16-13.4-22-21.2-7-9.1-12.7-19.8-16.5-30.8-4.4-12.7-5.7-21-5.6-35.5 0-11 .4-13.9 2.2-18.6 6.6-16.8 20-26.3 38.7-27.6 17.2-1.1 31.8 5.4 40.4 18.1 11.2 16.6 10 46.4-3 74.8-2.9 6.3-3.8 9.4-3.3 11.2 1.4 5.7 8.8 7.5 12.8 3.1 3-3.3 9.8-19.7 12.5-30 4.5-17.8 5.2-39.3 1.5-51.5-5.8-19.8-22.6-35.2-43-39.5-8.6-1.8-22.1-1.8-29.8.1z"/><path d="M255.7 257.8C245 268.6 239 275.4 239 276.7c0 3.8 3.8 7.3 7.8 7.3 3.3 0 4.6-.9 12.4-8.7l8.8-8.8v16c0 17.4.6 19.7 5.5 20.9 2.9.7 7.9-1.5 8.9-3.9.3-.9.6-8.7.6-17.3v-15.7l8.8 8.8c7.7 7.7 9.2 8.7 12.3 8.7 4.5 0 6.9-2.5 6.9-7.1 0-3.1-1.6-5-16.3-19.7-13.8-13.8-16.7-16.2-19.2-16.2-2.6 0-5.5 2.4-19.8 16.8zM374.7 262c-11.4 2-22.3 10.6-27.5 21.8-2.1 4.7-2.6 7.2-2.6 14.2 0 7.3.4 9.4 2.8 14.7 3.1 6.9 10.6 14.7 17.2 18.1 17.9 9.1 40.2 1.3 49.5-17.5 2.1-4.1 2.4-6.3 2.4-15.3 0-9.5-.3-11-2.7-15.6-8.1-15.4-22.9-23.1-39.1-20.4zm17.7 18c2 1.4 4.9 4.3 6.4 6.4 2.4 3.5 2.7 4.9 2.7 11.7 0 7-.3 8.1-3 12-7.6 10.9-24.5 12.3-33.1 2.7-8.4-9.1-7.4-24.1 1.9-31.2 5-3.8 7.6-4.6 14.8-4.3 5.1.2 7.5.8 10.3 2.7zM168.6 267.1l-2.6 2v168.8l-3.8 1.1c-9.1 2.4-145.4 36-146.3 36-.5 0-.9-29.6-.9-75.4v-75.5l-2.6-2c-3.5-2.8-6.9-2.6-9.9.4L0 324.9v80.9c0 80.4 0 80.9 2.1 83.6 1.4 1.8 3 2.6 5.2 2.6 1.8 0 39.9-9.1 84.6-20.1l81.5-20.2 29.2 7.2c31.4 7.8 31.6 7.8 34.9 2.7 2-3 1.1-7.2-1.9-9.1-1.1-.8-13.8-4.3-28.1-7.9l-26-6.4-.5-84.7-.5-84.7-2.4-1.9c-3-2.5-6.2-2.4-9.5.2z"/><path d="M145.5 307.4c-12.6 3.6-24.3 8.5-26 10.9-2.2 3.1-1.8 6.4 1 9.2 3.2 3.3 5.1 3.2 15.4-.9 4.7-1.9 11.7-4.2 15.4-5.2 8.8-2.2 12.3-6.2 10.1-11.9-.6-1.5-5.5-4.6-7.1-4.4-.4 0-4.4 1.1-8.8 2.3zM209.2 310.5c-4.6 5.8-2.1 10.2 8 13.9 3.6 1.3 10.7 4.4 15.8 6.7 10.2 4.7 13.1 4.7 15.9-.3 2-3.6.6-7.5-3.7-10.4-5-3.4-25.2-11.6-29.8-12.2-3.5-.4-4.4-.1-6.2 2.3zM72.5 349.9c-2.5 1.1-21 20.2-23.6 24.5-2.4 4-2.4 5.7.2 9 1.5 1.9 3 2.6 5.6 2.6 3 0 4.2-.8 9.1-6.3 3.1-3.4 8.7-9.3 12.4-13.2 7.7-7.8 8.5-10.8 4.3-15-2.5-2.6-4.5-3-8-1.6zM286 358c-1.2 1.2-2 3.3-2 5.2 0 2.8 1.8 5.1 11.9 15.5 6.5 6.7 12.9 12.7 14.3 13.2 5.5 2.1 11-3.2 9.4-9.2-.3-1.2-6.1-7.7-12.9-14.5-10.6-10.4-12.8-12.2-15.5-12.2-1.9 0-4 .8-5.2 2zM356 417.3c-1.3.7-3.1 2.4-3.9 3.8-2.2 4 .2 7.7 7.4 11.6 6.4 3.4 19.4 7.9 26 8.9 4.9.7 8.2-1.5 9.1-6.3.9-4.6-2.4-7.5-10.9-9.6-3.8-1-10.8-3.5-15.6-5.7-10.2-4.6-8.9-4.3-12.1-2.7z"/></svg>